<svg id="Capa_1" enable-background="new 0 0 512 512" height="512" viewBox="0 0 512 512" width="512" xmlns="http://www.w3.org/2000/svg" xmlns:xlink="http://www.w3.org/1999/xlink"><linearGradient id="SVGID_1_" gradientUnits="userSpaceOnUse" x1="217" x2="217" y1="496" y2="16"><stop offset="0" stop-color="#fd5900"/><stop offset="1" stop-color="#ffde00"/></linearGradient><linearGradient id="SVGID_2_" gradientUnits="userSpaceOnUse" x1="286" x2="286" y1="496" y2="76"><stop offset="0" stop-color="#ffe59a"/><stop offset="1" stop-color="#ffffd5"/></linearGradient><g><g><g><path d="m421 136v-105c0-8.284-6.716-15-15-15h-391c-8.284 0-15 6.716-15 15v450c0 8.284 6.716 15 15 15h406l13-32v-303z" fill="url(#SVGID_1_)"/></g></g><g><g><path d="m75 376h121c8.284 0 15-6.716 15-15v-120c0-8.284-6.716-15-15-15h-121c-8.284 0-15 6.716-15 15v120c0 8.284 6.716 15 15 15zm271-300h-271c-8.284 0-15 6.716-15 15v90c0 8.284 6.716 15 15 15h271c8.284 0 15-6.716 15-15v-90c0-8.284-6.716-15-15-15zm0 150h-90c-8.284 0-15 6.716-15 15s6.716 15 15 15h90c8.284 0 15-6.716 15-15s-6.716-15-15-15zm0 120h-90c-8.284 0-15 6.716-15 15s6.716 15 15 15h90c8.284 0 15-6.716 15-15s-6.716-15-15-15zm0-60h-90c-8.284 0-15 6.716-15 15s6.716 15 15 15h90c8.284 0 15-6.716 15-15s-6.716-15-15-15zm0 120h-271c-8.284 0-15 6.716-15 15s6.716 15 15 15h271c8.284 0 15-6.716 15-15s-6.716-15-15-15zm151-270h-76v360h76c8.284 0 15-6.716 15-15v-330c0-8.284-6.716-15-15-15z" fill="url(#SVGID_2_)"/></g></g></g></svg>