<svg id="Capa_1" enable-background="new 0 0 512 512" height="512" viewBox="0 0 512 512" width="512" xmlns="http://www.w3.org/2000/svg" xmlns:xlink="http://www.w3.org/1999/xlink"><linearGradient id="SVGID_1_" gradientUnits="userSpaceOnUse" x1="256" x2="256" y1="512" y2="0"><stop offset="0" stop-color="#5558ff"/><stop offset="1" stop-color="#00c0ff"/></linearGradient><linearGradient id="SVGID_2_" gradientUnits="userSpaceOnUse" x1="256" x2="256" y1="452" y2="60"><stop offset="0" stop-color="#addcff"/><stop offset=".5028" stop-color="#eaf6ff"/><stop offset="1" stop-color="#eaf6ff"/></linearGradient><g><g><g><path d="m376 0h-240c-24.813 0-45 20.187-45 45v422c0 24.813 20.187 45 45 45h240c24.813 0 45-20.187 45-45v-422c0-24.813-20.187-45-45-45z" fill="url(#SVGID_1_)"/></g></g><g><g><path d="m271 422h-30c-8.284 0-15 6.716-15 15s6.716 15 15 15h30c8.284 0 15-6.716 15-15s-6.716-15-15-15zm-30-332h30c8.284 0 15-6.716 15-15s-6.716-15-15-15h-30c-8.284 0-15 6.716-15 15s6.716 15 15 15zm75 196c-10.579 0-20.309 3.678-28 9.811l-48.079-30.049c.699-3.145 1.079-6.409 1.079-9.762s-.38-6.617-1.079-9.762l48.079-30.049c7.691 6.133 17.422 9.811 28 9.811 24.813 0 45-20.187 45-45s-20.187-45-45-45-45 20.187-45 45c0 3.353.38 6.617 1.079 9.762l-48.079 30.049c-7.691-6.133-17.422-9.811-28-9.811-24.813 0-45 20.187-45 45s20.187 45 45 45c10.579 0 20.309-3.678 28-9.811l48.079 30.049c-.699 3.145-1.079 6.409-1.079 9.762 0 24.813 20.187 45 45 45s45-20.187 45-45-20.187-45-45-45z" fill="url(#SVGID_2_)"/></g></g></g></svg>