<svg id="Capa_1" enable-background="new 0 0 512 512" height="512" viewBox="0 0 512 512" width="512" xmlns="http://www.w3.org/2000/svg" xmlns:xlink="http://www.w3.org/1999/xlink"><linearGradient id="SVGID_1_" gradientUnits="userSpaceOnUse" x1="256" x2="256" y1="481" y2="31"><stop offset="0" stop-color="#5558ff"/><stop offset="1" stop-color="#00c0ff"/></linearGradient><linearGradient id="SVGID_2_" gradientUnits="userSpaceOnUse" x1="256" x2="256" y1="421" y2="31"><stop offset="0" stop-color="#addcff"/><stop offset=".5028" stop-color="#eaf6ff"/><stop offset="1" stop-color="#eaf6ff"/></linearGradient><g><g><g><path d="m462 61-10-30h-30l-10 30h-10l-10-30h-30l-10 30h-10l-10-30h-30l-10 30h-256l-36 60v345c0 8.284 6.716 15 15 15h482c8.284 0 15-6.716 15-15v-345z" fill="url(#SVGID_1_)"/></g></g><g><g><path d="m497 31h-45v45c0 8.284-6.716 15-15 15s-15-6.716-15-15v-45h-30v45c0 8.284-6.716 15-15 15s-15-6.716-15-15v-45h-30v45c0 8.284-6.716 15-15 15s-15-6.716-15-15v-45h-287c-8.284 0-15 6.716-15 15v75h512v-75c0-8.284-6.716-15-15-15zm-90 210h-302c-8.284 0-15 6.716-15 15v90c0 8.284 6.716 15 15 15h302c8.284 0 15-6.716 15-15v-90c0-8.284-6.716-15-15-15zm0 150h-90c-8.284 0-15 6.716-15 15s6.716 15 15 15h90c8.284 0 15-6.716 15-15s-6.716-15-15-15zm0-210h-302c-8.284 0-15 6.716-15 15s6.716 15 15 15h302c8.284 0 15-6.716 15-15s-6.716-15-15-15z" fill="url(#SVGID_2_)"/></g></g></g></svg>