<svg id="Capa_1" enable-background="new 0 0 512 512" height="512" viewBox="0 0 512 512" width="512" xmlns="http://www.w3.org/2000/svg" xmlns:xlink="http://www.w3.org/1999/xlink"><linearGradient id="SVGID_1_" gradientUnits="userSpaceOnUse" x1="135.5" x2="135.5" y1="257" y2="120"><stop offset="0" stop-color="#ffbef9"/><stop offset="1" stop-color="#fff1ff"/></linearGradient><linearGradient id="SVGID_2_" gradientUnits="userSpaceOnUse" x1="256" x2="256" y1="512" y2="0"><stop offset="0" stop-color="#a93aff"/><stop offset="1" stop-color="#ff81ff"/></linearGradient><g><g><g><path d="m226 120h-181c-24.81 0-45 20.19-45 45v75l29 17h213l29-17v-75c0-24.81-20.19-45-45-45z" fill="url(#SVGID_1_)"/></g></g><g><g><path d="m0 377c0 74.44 61.01 135 136 135 74.44 0 135-60.56 135-135v-137h-271zm497-377c-8.284 0-15 6.716-15 15v90c0 41.355-34.093 75-76 75-41.355 0-75-33.645-75-75 0-57.897-47.103-105-105-105s-105 47.103-105 105v90c0 8.284 6.716 15 15 15s15-6.716 15-15v-90c0-41.355 33.645-75 75-75s75 33.645 75 75c0 57.897 47.103 105 105 105 58.449 0 106-47.103 106-105v-90c0-8.284-6.716-15-15-15z" fill="url(#SVGID_2_)"/></g></g></g></svg>