<svg id="Capa_1" enable-background="new 0 0 512 512" height="512" viewBox="0 0 512 512" width="512" xmlns="http://www.w3.org/2000/svg" xmlns:xlink="http://www.w3.org/1999/xlink"><linearGradient id="SVGID_1_" gradientUnits="userSpaceOnUse" x1="256" x2="256" y1="481" y2="35.393"><stop offset="0" stop-color="#ffe59a"/><stop offset="1" stop-color="#ffffd5"/></linearGradient><linearGradient id="SVGID_2_" gradientUnits="userSpaceOnUse" x1="256" x2="256" y1="406.001" y2="31"><stop offset="0" stop-color="#fd5900"/><stop offset="1" stop-color="#ffde00"/></linearGradient><g><g><g><path d="m451 346c0-8.284-6.716-15-15-15h-120c-8.284 0-15 6.716-15 15s6.716 15 15 15h120c8.284 0 15-6.716 15-15zm15 75h-120c-8.284 0-15 6.716-15 15s6.716 15 15 15h120c8.284 0 15-6.716 15-15s-6.716-15-15-15zm-390-330h120c8.284 0 15-6.716 15-15s-6.716-15-15-15h-120c-8.284 0-15 6.716-15 15s6.716 15 15 15zm-30 90h120c8.284 0 15-6.716 15-15s-6.716-15-15-15h-120c-8.284 0-15 6.716-15 15s6.716 15 15 15zm-41.607 124.393c-2.714 2.715-4.393 6.465-4.393 10.607v150c0 8.284 6.716 15 15 15h241c8.284 0 15-6.716 15-15v-150c0-4.142-1.679-7.892-4.394-10.607zm503.213-270h-263.212c-2.715 2.715-4.394 6.465-4.394 10.607v150c0 8.284 6.716 15 15 15h242c8.284 0 15-6.716 15-15v-150c0-4.142-1.679-7.892-4.394-10.607z" fill="url(#SVGID_1_)"/></g></g><g><g><path d="m15 301c-4.142 0-7.892 1.679-10.607 4.393l121.669 96.877c5.679 4.988 14.182 4.972 19.842-.037l120.702-96.84c-2.714-2.714-6.464-4.393-10.606-4.393zm482-270h-242c-4.142 0-7.892 1.679-10.606 4.393l121.669 96.877c5.679 4.988 14.182 4.972 19.842-.037l121.702-96.84c-2.715-2.714-6.465-4.393-10.607-4.393z" fill="url(#SVGID_2_)"/></g></g></g></svg>