<svg id="Capa_1" enable-background="new 0 0 512 512" height="512" viewBox="0 0 512 512" width="512" xmlns="http://www.w3.org/2000/svg" xmlns:xlink="http://www.w3.org/1999/xlink"><linearGradient id="SVGID_1_" gradientUnits="userSpaceOnUse" x1="271" x2="271" y1="300" y2="30"><stop offset="0" stop-color="#fd3a84"/><stop offset="1" stop-color="#ffa68d"/></linearGradient><linearGradient id="SVGID_2_" gradientUnits="userSpaceOnUse" x1="61" x2="61" y1="512" y2="0"><stop offset="0" stop-color="#ffc2cc"/><stop offset="1" stop-color="#fff2f4"/></linearGradient><g><g><g><path d="m394.75 165 83.25-111c3.409-4.545 3.957-10.626 1.416-15.708-2.54-5.082-7.734-8.292-13.416-8.292h-390c-8.284 0-15 6.716-15 15v240c0 8.284 6.716 15 15 15h390c5.682 0 10.876-3.21 13.416-8.292 2.541-5.082 1.993-11.163-1.416-15.708z" fill="url(#SVGID_1_)"/></g></g><g><path d="m76 512h-30c-8.284 0-15-6.716-15-15v-482c0-8.284 6.716-15 15-15h30c8.284 0 15 6.716 15 15v482c0 8.284-6.716 15-15 15z" fill="url(#SVGID_2_)"/></g></g></svg>