<svg id="Capa_1" enable-background="new 0 0 512.01 512.01" height="512" viewBox="0 0 512.01 512.01" width="512" xmlns="http://www.w3.org/2000/svg" xmlns:xlink="http://www.w3.org/1999/xlink"><linearGradient id="SVGID_1_" gradientUnits="userSpaceOnUse" x1="163.13" x2="454.832" y1="348.895" y2="57.194"><stop offset="0" stop-color="#ffc2cc"/><stop offset="1" stop-color="#fff2f4"/></linearGradient><linearGradient id="SVGID_2_" gradientUnits="userSpaceOnUse" x1="13.191" x2="412.425" y1="498.835" y2="99.601"><stop offset="0" stop-color="#fd3a84"/><stop offset="1" stop-color="#ffa68d"/></linearGradient><g><g><g><path d="m317.01.016c-107.523 0-195 87.477-195 195 0 37.492 10.646 72.541 29.059 102.3l-13.059 26.459 48.24 48.241 28.457-11.061c29.76 18.414 64.809 29.061 102.302 29.061 107.523 0 195-87.477 195-195s-87.475-195-194.999-195z" fill="url(#SVGID_1_)"/></g></g><g><g><path d="m151.069 297.315-137.878 137.881c-17.586 17.584-17.59 46.052 0 63.64 17.545 17.546 46.094 17.545 63.639 0l137.878-137.88c-25.826-15.981-47.659-37.815-63.639-63.641zm165.941-237.299c-74.439 0-135 60.561-135 135s60.561 135 135 135 135-60.561 135-135-60.56-135-135-135zm14.999 194.998c0 8.284-6.716 15-15 15s-15-6.716-15-15v-60c0-8.284 6.716-15 15-15s15 6.716 15 15zm-15-105c-8.284 0-15-6.716-15-15s6.716-15 15-15 15 6.716 15 15c0 8.285-6.715 15-15 15z" fill="url(#SVGID_2_)"/></g></g></g></svg>