<svg id="Capa_1" enable-background="new 0 0 512.014 512.014" height="512" viewBox="0 0 512.014 512.014" width="512" xmlns="http://www.w3.org/2000/svg" xmlns:xlink="http://www.w3.org/1999/xlink"><linearGradient id="SVGID_1_" gradientUnits="userSpaceOnUse" x1="256.007" x2="256.007" y1="512.014" y2="0"><stop offset="0" stop-color="#fd3a84"/><stop offset="1" stop-color="#ffa68d"/></linearGradient><linearGradient id="SVGID_2_" gradientUnits="userSpaceOnUse" x1="266.61" x2="266.61" y1="360.014" y2="38.794"><stop offset="0" stop-color="#ffc2cc"/><stop offset="1" stop-color="#fff2f4"/></linearGradient><g><g><g><path d="m377.002 120.014h-362.002c-8.284 0-15 6.716-15 15v362c0 8.284 6.716 15 15 15h362c3.979 0 7.794-1.581 10.606-4.394 2.813-2.813 4.394-6.628 4.394-10.606l.002-362c0-3.978-1.58-7.793-4.394-10.607-2.812-2.813-6.628-4.393-10.606-4.393zm117.428-102.43c-23.45-23.45-61.41-23.44-84.86 0l-21.21 21.21 14.64 29.22 37 36 33.22 19.64 21.21-21.21c23.45-23.45 23.44-61.41 0-84.86z" fill="url(#SVGID_1_)"/></g></g><g><g><path d="m388.36 38.794c-5.411 5.411-119.952 119.962-125.51 125.52-46.7 46.69-83.32 103.795-106.39 165.7h-81.46c-8.284 0-15 6.716-15 15s6.716 15 15 15h92c1.672 0 3.422-.31 4.9-.82 65.79-22.76 126.58-60.8 175.8-110.02l125.52-125.52z" fill="url(#SVGID_2_)"/></g></g></g></svg>