<svg id="Capa_1" enable-background="new 0 0 512 512" height="512" viewBox="0 0 512 512" width="512" xmlns="http://www.w3.org/2000/svg" xmlns:xlink="http://www.w3.org/1999/xlink"><linearGradient id="SVGID_1_" gradientUnits="userSpaceOnUse" x1="256" x2="256" y1="256" y2="0"><stop offset="0" stop-color="#ffbef9"/><stop offset="1" stop-color="#fff1ff"/></linearGradient><linearGradient id="SVGID_2_" gradientUnits="userSpaceOnUse" x1="256" x2="256" y1="512" y2="0"><stop offset="0" stop-color="#a93aff"/><stop offset="1" stop-color="#ff81ff"/></linearGradient><g><g><g><path d="m361 211-15-11 15-19v-30l-15-14 15-16v-45c0-36.328-25.745-67.33-60-74.458l-13 27.458-17-29h-30l-16 28.948-14-27.406c-34.261 7.128-60 38.137-60 74.458v45l15 16-15 14v30l15 19-15 11-15 16 15 14 29 15h153l28-15 15-14z" fill="url(#SVGID_1_)"/></g></g><g><g><path d="m241 136c0-8.284-6.716-15-15-15h-75v30h75c8.284 0 15-6.716 15-15zm-15-45c8.284 0 15-6.716 15-15v-76h-15c-5.138 0-10.154.533-15 1.542v74.458c0 8.284 6.715 15 15 15zm180 120h-45v30h30v45c0 28.225-11.224 55.636-30.794 75.206-19.858 19.858-46.211 30.794-74.206 30.794h-60c-27.994 0-54.348-10.936-74.206-30.794-19.571-19.57-30.794-46.981-30.794-75.206v-45h30v-30h-45c-8.284 0-15 6.716-15 15v60c0 36.122 14.427 71.266 39.581 96.419 25.524 25.524 59.412 39.581 95.419 39.581h15v60h-45c-8.284 0-15 6.716-15 15s6.716 15 15 15h120c8.284 0 15-6.716 15-15s-6.716-15-15-15h-45v-60h15c36.009 0 69.896-14.057 95.419-39.581 25.154-25.153 39.581-60.297 39.581-96.419 0 0 .001-59.982.001-60-.001-8.284-6.716-15-15.001-15zm-120-120c8.284 0 15-6.716 15-15v-74.458c-4.847-1.009-9.862-1.542-15-1.542h-15v76c0 8.284 6.715 15 15 15zm0 60h75v-30h-75c-8.284 0-15 6.716-15 15s6.715 15 15 15zm-60 211h60c41.466 0 75-34.542 75-76v-45h-210v45c0 41.467 33.543 76 75 76zm60-181c-8.284 0-15 6.716-15 15s6.716 15 15 15h75v-30zm-45 15c0-8.284-6.716-15-15-15h-75v30h75c8.284 0 15-6.716 15-15z" fill="url(#SVGID_2_)"/></g></g></g></svg>