<svg id="Capa_1" enable-background="new 0 0 512 512" height="512" viewBox="0 0 512 512" width="512" xmlns="http://www.w3.org/2000/svg" xmlns:xlink="http://www.w3.org/1999/xlink"><linearGradient id="SVGID_1_" gradientUnits="userSpaceOnUse" x1="256" x2="256" y1="512" y2="0"><stop offset="0" stop-color="#fd3a84"/><stop offset="1" stop-color="#ffa68d"/></linearGradient><linearGradient id="SVGID_2_" gradientUnits="userSpaceOnUse" x1="256" x2="256" y1="451.425" y2="60.575"><stop offset="0" stop-color="#ffc2cc"/><stop offset="1" stop-color="#fff2f4"/></linearGradient><g><g><g><circle cx="256" cy="256" fill="url(#SVGID_1_)" r="256"/></g></g><g><g><path d="m392 256c0-8.284 6.716-15 15-15h44.425c-3.279-42.626-20.414-81.586-46.858-112.354l-30.945 30.945c-5.857 5.857-15.355 5.858-21.213 0s-5.858-15.355 0-21.213l30.946-30.946c-30.767-26.442-69.725-43.578-112.355-46.857v44.425c0 8.284-6.716 15-15 15s-15-6.716-15-15v-44.425c-42.626 3.279-81.586 20.414-112.354 46.858l30.945 30.945c5.858 5.857 5.858 15.355 0 21.213-5.857 5.857-15.355 5.858-21.213 0l-30.946-30.945c-26.442 30.766-43.578 69.724-46.857 112.354h44.425c8.284 0 15 6.716 15 15s-6.716 15-15 15h-44.425c3.279 42.626 20.413 81.586 46.858 112.354l30.946-30.946c5.857-5.858 15.355-5.858 21.213 0s5.858 15.355 0 21.213l-30.946 30.946c30.766 26.444 69.723 43.579 112.354 46.858v-44.425c0-8.284 6.716-15 15-15s15 6.716 15 15v44.425c42.626-3.279 81.586-20.414 112.354-46.858l-30.945-30.946c-5.858-5.858-5.858-15.355 0-21.213s15.356-5.858 21.213 0l30.946 30.946c26.442-30.766 43.578-69.724 46.857-112.354h-44.425c-8.284 0-15-6.716-15-15zm-45 15h-91c-8.284 0-15-6.716-15-15v-91c0-8.284 6.716-15 15-15s15 6.716 15 15v76h76c8.284 0 15 6.716 15 15s-6.716 15-15 15z" fill="url(#SVGID_2_)"/></g></g></g></svg>