<svg id="Capa_1" enable-background="new 0 0 512 512" height="512" viewBox="0 0 512 512" width="512" xmlns="http://www.w3.org/2000/svg" xmlns:xlink="http://www.w3.org/1999/xlink"><linearGradient id="SVGID_1_" gradientUnits="userSpaceOnUse" x1="278.5" x2="278.5" y1="512" y2="0"><stop offset="0" stop-color="#00b59c"/><stop offset="1" stop-color="#9cffac"/></linearGradient><linearGradient id="SVGID_2_" gradientUnits="userSpaceOnUse" x1="225.836" x2="225.836" y1="421" y2="91"><stop offset="0" stop-color="#c3ffe8"/><stop offset=".9973" stop-color="#f0fff4"/></linearGradient><g><g><g><path d="m466 0h-360c-8.284 0-15 6.716-15 15v136l-15 14 15 16v90l-15 16 15 14v90l-15 14 15 16v76c0 8.284 6.716 15 15 15h360c8.284 0 15-6.716 15-15v-482c0-8.284-6.716-15-15-15z" fill="url(#SVGID_1_)"/></g></g><g><g><path d="m416.279 307.64-53.033-53.032c-5.857-5.857-15.354-5.858-21.213 0l-21.213 21.212c-5.842 5.842-15.344 5.848-21.194.019 0 0-31.953-31.955-32.009-32.01-5.793-5.858-5.785-15.301.064-21.149l21.213-21.213c5.857-5.858 5.857-15.355 0-21.213l-53.033-53.033c-5.857-5.857-15.358-5.855-21.213 0l-21.213 21.213c-17.589 17.589-17.587 46.053 0 63.639 17.901 17.9 131.994 131.994 137.992 137.993 17.589 17.589 46.053 17.587 63.64 0l21.213-21.213c5.856-5.857 5.854-15.359-.001-21.213zm-280.279-216.64h-60c-24.813 0-45 20.187-45 45s20.187 45 45 45h15v-30h-15c-8.271 0-15-6.729-15-15s6.729-15 15-15h60c8.284 0 15-6.716 15-15s-6.716-15-15-15zm0 240h-60c-24.813 0-45 20.187-45 45s20.187 45 45 45h15v-30h-15c-8.271 0-15-6.729-15-15s6.729-15 15-15h60c8.284 0 15-6.716 15-15s-6.716-15-15-15zm0-120h-60c-24.813 0-45 20.187-45 45s20.187 45 45 45h15v-30h-15c-8.271 0-15-6.729-15-15s6.729-15 15-15h60c8.284 0 15-6.716 15-15s-6.716-15-15-15z" fill="url(#SVGID_2_)"/></g></g></g></svg>