<svg id="Capa_1" enable-background="new 0 0 511.954 511.954" height="512" viewBox="0 0 511.954 511.954" width="512" xmlns="http://www.w3.org/2000/svg" xmlns:xlink="http://www.w3.org/1999/xlink"><linearGradient id="SVGID_1_" gradientUnits="userSpaceOnUse" x1="137.024" x2="471.973" y1="374.432" y2="39.483"><stop offset="0" stop-color="#a93aff"/><stop offset="1" stop-color="#ff81ff"/></linearGradient><linearGradient id="SVGID_2_" gradientUnits="userSpaceOnUse" x1="335.347" x2="416.56" y1="175.608" y2="94.395"><stop offset="0" stop-color="#ffbef9"/><stop offset="1" stop-color="#fff1ff"/></linearGradient><g><g><g><g><path d="m375.954.002c-74.439 0-135 60.561-135 135 0 31.011 10.387 60.428 29.513 84.274l-25.12 25.119c-4.29 4.29-5.574 10.742-3.252 16.347s7.792 9.26 13.858 9.26h120c74.99 0 136-60.561 136-135s-61.009-135-135.999-135zm-15.442 343.359c-17.544-17.544-46.094-17.545-63.64 0l-21.213 21.213c-2.833 2.833-6.6 4.394-10.607 4.394s-7.773-1.561-10.558-4.344l-107.114-108.115c-2.833-2.833-4.394-6.6-4.394-10.607 0-4.006 1.561-7.773 4.394-10.606l21.214-21.213c17.545-17.546 17.545-46.094 0-63.639l-53.034-53.034c-17.544-17.545-46.094-17.546-63.639 0l-21.213 21.213c-40.939 40.939-40.939 107.553-.025 148.468l213.157 214.157c20.47 20.47 47.357 30.705 74.246 30.705s53.776-10.235 74.246-30.705l21.213-21.213c17.546-17.545 17.546-46.094 0-63.639z" fill="url(#SVGID_1_)"/></g></g></g><g><g><path d="m375.954 120.002c-8.284 0-15 6.716-15 15v60c0 8.284 6.716 15 15 15s15-6.716 15-15v-60c0-8.285-6.716-15-15-15zm0-30c8.284 0 15-6.716 15-15s-6.716-15-15-15-15 6.716-15 15 6.716 15 15 15z" fill="url(#SVGID_2_)"/></g></g></g></svg>