<svg id="Capa_1" enable-background="new 0 0 512 512" height="512" viewBox="0 0 512 512" width="512" xmlns="http://www.w3.org/2000/svg" xmlns:xlink="http://www.w3.org/1999/xlink"><linearGradient id="SVGID_1_" gradientUnits="userSpaceOnUse" x1="256" x2="256" y1="512" y2="29"><stop offset="0" stop-color="#fd3a84"/><stop offset="1" stop-color="#ffa68d"/></linearGradient><linearGradient id="SVGID_2_" gradientUnits="userSpaceOnUse" x1="256" x2="256" y1="452" y2="0"><stop offset="0" stop-color="#ffc2cc"/><stop offset="1" stop-color="#fff2f4"/></linearGradient><g><g><g><path d="m506.816 214.658-91-78.75-10.816-3.658v-103.25h-297v103.25l-11.816 3.658-91 78.75c-3.292 2.849-5.184 6.988-5.184 11.342v271c0 8.284 6.716 15 15 15h482c8.284 0 15-6.716 15-15v-271c0-4.354-1.892-8.493-5.184-11.342z" fill="url(#SVGID_1_)"/></g></g><g><g><path d="m256 181c-8.271 0-15 6.729-15 15s6.729 15 15 15 15-6.729 15-15-6.729-15-15-15zm150-181h-300c-8.28 0-15 6.72-15 15v297.47l155.12 135.82c2.83 2.47 6.35 3.71 9.88 3.71s7.05-1.24 9.88-3.71l155.12-135.81v-297.48c0-8.28-6.72-15-15-15zm-90 241c-11.517 0-22.032-4.354-30-11.495-7.968 7.141-18.483 11.495-30 11.495-24.813 0-45-20.187-45-45s20.187-45 45-45 45 20.187 45 45c0 8.271 6.729 15 15 15s15-6.729 15-15c0-41.355-33.645-75-75-75s-75 33.645-75 75 33.645 75 75 75c8.593 0 17.012-1.437 25.024-4.271 7.808-2.764 16.38 1.328 19.144 9.138 2.763 7.81-1.329 16.381-9.139 19.144-11.233 3.974-23.019 5.989-35.029 5.989-57.897 0-105-47.103-105-105s47.103-105 105-105 105 47.103 105 105c0 24.813-20.187 45-45 45z" fill="url(#SVGID_2_)"/></g></g></g></svg>