<svg id="Capa_1" enable-background="new 0 0 512 512" height="512" viewBox="0 0 512 512" width="512" xmlns="http://www.w3.org/2000/svg" xmlns:xlink="http://www.w3.org/1999/xlink"><linearGradient id="SVGID_1_" gradientUnits="userSpaceOnUse" x1="256" x2="256" y1="512" y2="0"><stop offset="0" stop-color="#a93aff"/><stop offset="1" stop-color="#ff81ff"/></linearGradient><linearGradient id="SVGID_2_" gradientUnits="userSpaceOnUse" x1="255.457" x2="255.457" y1="452" y2="60"><stop offset="0" stop-color="#ffbef9"/><stop offset="1" stop-color="#fff1ff"/></linearGradient><g><g><g><path d="m376 0h-240c-24.813 0-45 20.187-45 45v422c0 24.813 20.187 45 45 45h240c24.813 0 45-20.187 45-45v-422c0-24.813-20.187-45-45-45z" fill="url(#SVGID_1_)"/></g></g><g><g><path d="m271 422h-30c-8.284 0-15 6.716-15 15s6.716 15 15 15h30c8.284 0 15-6.716 15-15s-6.716-15-15-15zm-30-332h30c8.284 0 15-6.716 15-15s-6.716-15-15-15h-30c-8.284 0-15 6.716-15 15s6.716 15 15 15zm130.279 217.64-53.032-53.032c-5.856-5.858-15.354-5.857-21.213 0l-21.214 21.212c-5.842 5.842-15.344 5.848-21.194.019 0 0-31.953-31.955-32.009-32.01-5.793-5.858-5.785-15.3.064-21.149l21.213-21.213c5.857-5.858 5.857-15.355 0-21.213l-53.033-53.033c-5.857-5.857-15.358-5.854-21.213 0l-21.213 21.213c-17.589 17.588-17.587 46.053 0 63.639l137.993 137.993c17.588 17.588 46.055 17.586 63.639 0l21.214-21.213c5.856-5.858 5.852-15.36-.002-21.213z" fill="url(#SVGID_2_)"/></g></g></g></svg>