<svg id="Capa_1" enable-background="new 0 0 512 512" height="512" viewBox="0 0 512 512" width="512" xmlns="http://www.w3.org/2000/svg" xmlns:xlink="http://www.w3.org/1999/xlink"><linearGradient id="SVGID_1_" gradientUnits="userSpaceOnUse" x1="256" x2="256" y1="512" y2="0"><stop offset="0" stop-color="#00b59c"/><stop offset="1" stop-color="#9cffac"/></linearGradient><linearGradient id="SVGID_2_" gradientUnits="userSpaceOnUse" x1="256" x2="256" y1="421" y2="91"><stop offset="0" stop-color="#c3ffe8"/><stop offset=".9973" stop-color="#f0fff4"/></linearGradient><g><g><g><path d="m497 121c8.284 0 15-6.716 15-15v-91c0-8.284-6.716-15-15-15h-91c-8.284 0-15 6.716-15 15 0 8.271-6.729 15-15 15s-15-6.729-15-15c0-8.284-6.716-15-15-15h-60c-8.284 0-15 6.716-15 15 0 8.271-6.729 15-15 15s-15-6.729-15-15c0-8.284-6.716-15-15-15h-60c-8.284 0-15 6.716-15 15 0 8.271-6.729 15-15 15s-15-6.729-15-15c0-8.284-6.716-15-15-15h-91c-8.284 0-15 6.716-15 15v91c0 8.284 6.716 15 15 15 8.271 0 15 6.729 15 15s-6.729 15-15 15c-8.284 0-15 6.716-15 15v60c0 8.284 6.716 15 15 15 8.271 0 15 6.729 15 15s-6.729 15-15 15c-8.284 0-15 6.716-15 15v60c0 8.284 6.716 15 15 15 8.271 0 15 6.729 15 15s-6.729 15-15 15c-8.284 0-15 6.716-15 15v91c0 8.284 6.716 15 15 15h91c8.284 0 15-6.716 15-15 0-8.271 6.729-15 15-15s15 6.729 15 15c0 8.284 6.716 15 15 15h60c8.284 0 15-6.716 15-15 0-8.271 6.729-15 15-15s15 6.729 15 15c0 8.284 6.716 15 15 15h60c8.284 0 15-6.716 15-15 0-8.271 6.729-15 15-15s15 6.729 15 15c0 8.284 6.716 15 15 15h91c8.284 0 15-6.716 15-15v-91c0-8.284-6.716-15-15-15-8.271 0-15-6.729-15-15s6.729-15 15-15c8.284 0 15-6.716 15-15v-60c0-8.284-6.716-15-15-15-8.271 0-15-6.729-15-15s6.729-15 15-15c8.284 0 15-6.716 15-15v-60c0-8.284-6.716-15-15-15-8.271 0-15-6.729-15-15s6.729-15 15-15z" fill="url(#SVGID_1_)"/></g></g><g><g><path d="m256 241c-8.271 0-15 6.729-15 15s6.729 15 15 15 15-6.729 15-15-6.729-15-15-15zm150-150h-300c-8.284 0-15 6.716-15 15v300c0 8.284 6.716 15 15 15h300c8.284 0 15-6.716 15-15v-300c0-8.284-6.716-15-15-15zm-90 210c-11.517 0-22.032-4.354-30-11.495-7.968 7.141-18.483 11.495-30 11.495-24.813 0-45-20.187-45-45s20.187-45 45-45 45 20.187 45 45c0 8.271 6.729 15 15 15s15-6.729 15-15c0-41.355-33.645-75-75-75s-75 33.645-75 75 33.645 75 75 75c8.593 0 17.012-1.437 25.024-4.271 7.808-2.765 16.38 1.328 19.144 9.138 2.763 7.81-1.329 16.381-9.139 19.144-11.233 3.974-23.019 5.989-35.029 5.989-57.897 0-105-47.103-105-105s47.103-105 105-105 105 47.103 105 105c0 24.813-20.187 45-45 45z" fill="url(#SVGID_2_)"/></g></g></g></svg>