<svg id="Capa_1" enable-background="new 0 0 512.188 512.188" height="512" viewBox="0 0 512.188 512.188" width="512" xmlns="http://www.w3.org/2000/svg" xmlns:xlink="http://www.w3.org/1999/xlink"><linearGradient id="SVGID_1_" gradientUnits="userSpaceOnUse" x1="316" x2="316" y1="226.094" y2="16.094"><stop offset="0" stop-color="#ffe59a"/><stop offset="1" stop-color="#ffffd5"/></linearGradient><linearGradient id="SVGID_2_" gradientUnits="userSpaceOnUse" x1="256.094" x2="256.094" y1="496.094" y2="230.7"><stop offset="0" stop-color="#fd5900"/><stop offset="1" stop-color="#ffde00"/></linearGradient><g><g><g><path d="m316 16.094c-57.897 0-105 47.103-105 105s47.103 105 105 105c12.011 0 23.796-2.015 35.029-5.989 7.81-2.763 11.901-11.334 9.138-19.144-2.763-7.811-11.333-11.901-19.144-9.138-8.012 2.834-16.431 4.271-25.023 4.271-41.355 0-75-33.645-75-75s33.645-75 75-75 75 33.645 75 75c0 8.271-6.729 15-15 15s-15-6.729-15-15c0-24.813-20.187-45-45-45s-45 20.187-45 45 20.187 45 45 45c11.517 0 22.032-4.354 30-11.495 7.968 7.142 18.483 11.495 30 11.495 24.813 0 45-20.187 45-45 0-57.897-47.103-105-105-105zm0 120c-8.271 0-15-6.729-15-15s6.729-15 15-15 15 6.729 15 15-6.729 15-15 15z" fill="url(#SVGID_1_)"/></g></g><g><g><path d="m507.799 243.493c-.3 0-.3-.298-.599-.298-17.701-17.1-45.901-16.501-63.302.899l-97.5 97.5c-2.999 3.001-6.899 4.501-10.8 4.501h-125.6c-8.401 0-15-6.601-15-15 0-8.401 6.599-15 15-15h107c8.401 0 15-6.601 15-15v-30c0-8.401-6.599-15-15-15h-167c-3.9 0-7.8 1.5-10.499 4.499l-135 135c-6 5.7-6 15.3 0 21l75 75c5.398 6.002 15.603 5.999 20.999 0l85.802-85.5h174.2c3.9 0 7.8-1.5 10.499-4.501l136.8-136.499c6-6.001 5.7-15.601 0-21.601z" fill="url(#SVGID_2_)"/></g></g></g></svg>