<svg id="Capa_1" enable-background="new 0 0 512 512" height="512" viewBox="0 0 512 512" width="512" xmlns="http://www.w3.org/2000/svg" xmlns:xlink="http://www.w3.org/1999/xlink"><linearGradient id="SVGID_1_" gradientUnits="userSpaceOnUse" x1="256" x2="256" y1="512" y2="0"><stop offset="0" stop-color="#fd3a84"/><stop offset="1" stop-color="#ffa68d"/></linearGradient><linearGradient id="SVGID_2_" gradientUnits="userSpaceOnUse" x1="256" x2="256" y1="512" y2="60"><stop offset="0" stop-color="#ffc2cc"/><stop offset="1" stop-color="#fff2f4"/></linearGradient><g><g><g><path d="m477 82h-71v-8l-15-14v-15c0-8.271 6.729-15 15-15s15 6.729 15 15v30h30v-30c0-24.813-20.187-45-45-45s-45 20.187-45 45v15l-15 14v8h-90v-8l-15-14v-15c0-8.271 6.729-15 15-15s15 6.729 15 15v30h30v-30c0-24.813-20.187-45-45-45s-45 20.187-45 45v15l-15 14v8h-90v-8l-15-14v-15c0-8.271 6.729-15 15-15s15 6.729 15 15v30h30v-30c0-24.813-20.187-45-45-45s-45 20.187-45 45v15l-15 14v8h-19l-27 70v345c0 8.28 6.72 15 15 15h482c8.28 0 15-6.72 15-15v-345z" fill="url(#SVGID_1_)"/></g></g><g><g><path d="m497 60h-106v46c0 8.284-6.716 15-15 15s-15-6.716-15-15v-46h-120v46c0 8.284-6.716 15-15 15s-15-6.716-15-15v-46h-120v46c0 8.284-6.716 15-15 15s-15-6.716-15-15v-46h-46c-8.28 0-15 6.72-15 15v77h512v-77c0-8.28-6.72-15-15-15zm-331 152h-60c-8.284 0-15 6.716-15 15v60c0 8.284 6.716 15 15 15h60c8.284 0 15-6.716 15-15v-60c0-8.284-6.716-15-15-15zm120 0h-60c-8.284 0-15 6.716-15 15v60c0 8.284 6.716 15 15 15h60c8.284 0 15-6.716 15-15v-60c0-8.284-6.716-15-15-15zm135 75v-60c0-8.284-6.716-15-15-15h-60c-8.284 0-15 6.716-15 15v60c0 8.284 6.716 15 15 15h60c8.284 0 15-6.716 15-15zm-255 45h-60c-8.284 0-15 6.716-15 15v60c0 8.284 6.716 15 15 15h60c8.284 0 15-6.716 15-15v-60c0-8.284-6.716-15-15-15zm120 0h-60c-8.284 0-15 6.716-15 15v60c0 8.284 6.716 15 15 15h60c8.284 0 15-6.716 15-15v-60c0-8.284-6.716-15-15-15zm75 45v135l151-150h-136c-8.284 0-15 6.716-15 15z" fill="url(#SVGID_2_)"/></g></g></g></svg>