<svg id="Capa_1" enable-background="new 0 0 512 512" height="512" viewBox="0 0 512 512" width="512" xmlns="http://www.w3.org/2000/svg" xmlns:xlink="http://www.w3.org/1999/xlink"><linearGradient id="SVGID_1_" gradientUnits="userSpaceOnUse" x1="256" x2="256" y1="451.001" y2="7.548"><stop offset="0" stop-color="#5558ff"/><stop offset="1" stop-color="#00c0ff"/></linearGradient><linearGradient id="SVGID_2_" gradientUnits="userSpaceOnUse" x1="256" x2="256" y1="512" y2="0"><stop offset="0" stop-color="#addcff"/><stop offset=".5028" stop-color="#eaf6ff"/><stop offset="1" stop-color="#eaf6ff"/></linearGradient><g><g><g><path d="m510.018 428.548-241.014-421-8.004 30.452 23.284 324 12.54 32.673 196.073 55.755c5.84 1.661 12.142-.361 15.916-5.185 3.758-4.802 4.235-11.402 1.205-16.695zm-508.036 0c-3.03 5.293-2.553 11.893 1.205 16.696s10.049 6.853 15.917 5.185l196.073-55.755 18.823-23.674 24.578-342-15.582-21.452z" fill="url(#SVGID_1_)"/></g></g><g><g><path d="m270.949 13.758c-.188-2.258-.881-4.357-1.945-6.21-2.599-4.528-7.467-7.548-13.004-7.548s-10.405 3.02-13.004 7.548c-1.063 1.853-1.757 3.952-1.945 6.21l-25.876 380.915 26.265 105.937c1.66 6.691 7.666 11.39 14.56 11.39s12.9-4.699 14.559-11.39l26.266-105.937z" fill="url(#SVGID_2_)"/></g></g></g></svg>