<svg id="Capa_1" enable-background="new 0 0 512 512" height="512" viewBox="0 0 512 512" width="512" xmlns="http://www.w3.org/2000/svg" xmlns:xlink="http://www.w3.org/1999/xlink"><linearGradient id="SVGID_1_" gradientUnits="userSpaceOnUse" x1="258.197" x2="258.197" y1="270" y2="0"><stop offset="0" stop-color="#ffe59a"/><stop offset="1" stop-color="#ffffd5"/></linearGradient><linearGradient id="SVGID_2_" gradientUnits="userSpaceOnUse" x1="256" x2="256" y1="512" y2="4.394"><stop offset="0" stop-color="#fd5900"/><stop offset="1" stop-color="#ffde00"/></linearGradient><g><g><g><path d="m331 0h-150c-4.142 0-7.892 1.679-10.606 4.394v261.213c2.714 2.714 6.464 4.393 10.606 4.393h150c8.284 0 15-6.716 15-15v-240c0-8.284-6.716-15-15-15z" fill="url(#SVGID_1_)"/></g></g><g><g><path d="m421 300h-330c-8.284 0-15 6.716-15 15v30c0 5.928 3.491 11.3 8.908 13.707l126.092 56.041v82.252c0 5.199 2.691 10.027 7.114 12.76 2.409 1.489 5.144 2.24 7.887 2.24 2.292 0 4.591-.525 6.707-1.583l60-30c5.082-2.542 8.292-7.735 8.292-13.417v-52.252l126.092-56.041c5.417-2.407 8.908-7.779 8.908-13.707v-30c0-8.284-6.716-15-15-15zm-153.729-155.062c4.988-5.679 4.972-14.182-.038-19.842l-96.839-120.702c-2.715 2.714-4.394 6.464-4.394 10.606v240c0 4.142 1.679 7.892 4.394 10.606z" fill="url(#SVGID_2_)"/></g></g></g></svg>