<svg id="Capa_1" enable-background="new 0 0 512 512" height="512" viewBox="0 0 512 512" width="512" xmlns="http://www.w3.org/2000/svg" xmlns:xlink="http://www.w3.org/1999/xlink"><linearGradient id="SVGID_1_" gradientUnits="userSpaceOnUse" x1="256" x2="256" y1="512" y2="0"><stop offset="0" stop-color="#fd3a84"/><stop offset="1" stop-color="#ffa68d"/></linearGradient><linearGradient id="SVGID_2_" gradientUnits="userSpaceOnUse" x1="256" x2="256" y1="392" y2="90"><stop offset="0" stop-color="#ffc2cc"/><stop offset="1" stop-color="#fff2f4"/></linearGradient><g><g><g><path d="m316 0h-120c-74.439 0-135 60.561-135 135v362c0 8.284 6.716 15 15 15h60c8.284 0 15-6.716 15-15v-45h210v45c0 8.284 6.716 15 15 15h60c8.284 0 15-6.716 15-15v-362c0-74.439-60.561-135-135-135z" fill="url(#SVGID_1_)"/></g></g><g><g><path d="m266.904 313.233c-5.66 5.01-14.163 5.025-19.842.038l-121.669-96.877c-2.714 2.714-4.393 6.464-4.393 10.606v150c0 8.284 6.716 15 15 15h240c8.284 0 15-6.716 15-15v-150c0-4.142-1.679-7.892-4.394-10.606zm109.096-223.233h-240c-8.284 0-15 6.716-15 15v60c0 8.284 6.716 15 15 15h240c8.284 0 15-6.716 15-15v-60c0-8.284-6.716-15-15-15z" fill="url(#SVGID_2_)"/></g></g></g></svg>