<svg id="Capa_1" enable-background="new 0 0 512.002 512.002" height="512" viewBox="0 0 512.002 512.002" width="512" xmlns="http://www.w3.org/2000/svg" xmlns:xlink="http://www.w3.org/1999/xlink"><linearGradient id="SVGID_1_" gradientUnits="userSpaceOnUse" x1="256.001" x2="256.001" y1="466.001" y2="49.721"><stop offset="0" stop-color="#00b59c"/><stop offset="1" stop-color="#9cffac"/></linearGradient><linearGradient id="SVGID_2_" gradientUnits="userSpaceOnUse" x1="256.001" x2="256.001" y1="481.001" y2="31.001"><stop offset="0" stop-color="#c3ffe8"/><stop offset=".9973" stop-color="#f0fff4"/></linearGradient><g><g><g><path d="m256.001 49.721-136 101.584v-75.304c0-8.284-6.716-15-15-15h-30c-8.284 0-15 6.716-15 15v390h392v-269.88z" fill="url(#SVGID_1_)"/></g></g><g><g><path d="m467.001 451.001h-136v-135c0-8.284-6.716-15-15-15h-121c-8.284 0-15 6.716-15 15v135h-135c-8.284 0-15 6.716-15 15s6.716 15 15 15h422c8.284 0 15-6.716 15-15s-6.716-15-15-15zm38.976-237.018-241-180c-5.323-3.976-12.629-3.976-17.952 0l-241 180c-6.637 4.957-7.999 14.356-3.042 20.994 4.958 6.637 14.356 8 20.994 3.042l232.024-173.296 232.024 173.296c2.694 2.012 5.842 2.983 8.964 2.983 4.57 0 9.084-2.082 12.03-6.025 4.957-6.638 3.595-16.037-3.042-20.994z" fill="url(#SVGID_2_)"/></g></g></g></svg>