<svg id="Capa_1" enable-background="new 0 0 511.904 511.904" height="512" viewBox="0 0 511.904 511.904" width="512" xmlns="http://www.w3.org/2000/svg" xmlns:xlink="http://www.w3.org/1999/xlink"><linearGradient id="SVGID_1_" gradientUnits="userSpaceOnUse" x1="68.033" x2="443.871" y1="443.871" y2="68.033"><stop offset="0" stop-color="#a93aff"/><stop offset="1" stop-color="#ff81ff"/></linearGradient><linearGradient id="SVGID_2_" gradientUnits="userSpaceOnUse" x1="171.099" x2="340.805" y1="340.805" y2="171.099"><stop offset="0" stop-color="#ffbef9"/><stop offset="1" stop-color="#fff1ff"/></linearGradient><g><g><g><path d="m507.51 131.673-127.279-127.28c-2.813-2.813-6.628-4.393-10.606-4.393s-7.793 1.58-10.606 4.393l-145.493 145.493c-5.858 5.858-5.858 15.355 0 21.213l31.82 31.82 42.558-20.919 10.475-32.114 60.64-60.64c2.813-2.813 6.628-4.393 10.606-4.393 3.979 0 7.793 1.58 10.606 4.393l42.426 42.427c5.858 5.858 5.858 15.355 0 21.213l-60.636 60.637c-.001.001-.002.002-.003.003l-47.114 13.474-5.919 39.558 31.82 31.82c2.929 2.929 6.768 4.393 10.606 4.393s7.678-1.464 10.606-4.393l145.493-145.492c5.858-5.858 5.858-15.355 0-21.213zm-240.951 177.312-26.015 8.015-27.018 45.018s-.001.001-.002.001l-60.638 60.638c-5.856 5.857-15.354 5.859-21.213 0l-42.426-42.426c-5.858-5.858-5.858-15.355 0-21.213l60.64-60.64 39.017-17.378 14.015-35.655-31.82-31.82c-5.857-5.857-15.355-5.857-21.213 0l-145.492 145.493c-2.813 2.813-4.394 6.628-4.394 10.607s1.581 7.793 4.394 10.607l127.279 127.278c2.929 2.929 6.768 4.393 10.606 4.393s7.678-1.464 10.606-4.393l145.493-145.493c2.813-2.813 4.394-6.628 4.394-10.607s-1.581-7.794-4.394-10.607z" fill="url(#SVGID_1_)"/></g></g><g><g><path d="m362.018 192.312-42.427-42.427c-5.857-5.858-15.355-5.858-21.213 0l-148.492 148.493c-5.858 5.858-5.858 15.355 0 21.213l42.426 42.427c5.856 5.856 15.357 5.854 21.211.001l148.497-148.497c5.855-5.857 5.852-15.356-.002-21.21z" fill="url(#SVGID_2_)"/></g></g></g></svg>