<svg id="Capa_1" enable-background="new 0 0 512 512" height="512" viewBox="0 0 512 512" width="512" xmlns="http://www.w3.org/2000/svg" xmlns:xlink="http://www.w3.org/1999/xlink"><linearGradient id="SVGID_1_" gradientUnits="userSpaceOnUse" x1="256" x2="256" y1="497" y2="15"><stop offset="0" stop-color="#5558ff"/><stop offset="1" stop-color="#00c0ff"/></linearGradient><linearGradient id="SVGID_2_" gradientUnits="userSpaceOnUse" x1="256" x2="256" y1="512" y2="0"><stop offset="0" stop-color="#addcff"/><stop offset=".5028" stop-color="#eaf6ff"/><stop offset="1" stop-color="#eaf6ff"/></linearGradient><g><g><g><circle cx="256" cy="256" fill="url(#SVGID_1_)" r="241"/></g></g><g><g><path d="m256 0c-140.959 0-256 115.049-256 256 0 140.958 115.049 256 256 256 140.958 0 256-115.05 256-256 0-140.959-115.05-256-256-256zm225.49 241h-63.07c-4.746-13.382-15.649-23.871-29.29-28.041-2.399-27.327-7.08-53.58-13.783-77.753 19.985-6.033 38.246-13.781 54.695-23.219 29.445 35.523 48.232 80.175 51.448 129.013zm-120.49 14.995c.003-7.916 6.173-14.402 13.954-14.942.036 0 .071.005.106.005.313 0 .629-.01.946-.03.058-.004.114-.015.172-.02 8.189.098 14.822 6.782 14.822 14.992s-6.633 14.894-14.821 14.991c-.058-.004-.114-.016-.172-.02-.252-.016-.5-.006-.75-.009-7.924-.391-14.254-6.939-14.257-14.958 0-.002 0-.003 0-.005s0-.002 0-.004zm47.663-166.484c-12.938 6.812-27.13 12.536-42.534 17.152-5.076-13.623-10.864-26.317-17.306-37.853-5.304-9.499-10.985-18.076-16.98-25.703 28.722 10.263 54.778 26.176 76.82 46.404zm-137.663-56.989c18.534 6.205 36.457 23.741 51.629 50.913 5.198 9.308 9.928 19.492 14.154 30.4-12.382 2.403-25.401 4.204-39.036 5.4-4.807-11.929-14.578-21.339-26.747-25.655zm0 145.898c13.346-4.733 23.817-15.589 28.009-29.179 16.543-1.402 32.305-3.643 47.259-6.712 6.199 22.181 10.566 46.413 12.86 71.765-11.879 4.823-21.245 14.573-25.548 26.706h-62.58zm0 92.58h62.58c4.303 12.133 13.669 21.883 25.548 26.706-2.294 25.353-6.66 49.584-12.86 71.765-14.954-3.069-30.716-5.31-47.259-6.712-4.193-13.59-14.664-24.445-28.009-29.178zm-29.976-134.977c.012-.203.001-.402.005-.604.309-8.001 6.896-14.419 14.971-14.419s14.662 6.418 14.971 14.419c.004.202-.007.401.005.604.003.05.012.097.016.147-.093 8.192-6.778 14.83-14.992 14.83s-14.899-6.638-14.991-14.83c.003-.05.012-.097.015-.147zm-60.867-92.917c-5.995 7.627-11.676 16.205-16.98 25.703-6.441 11.536-12.23 24.231-17.306 37.853-15.404-4.616-29.597-10.34-42.534-17.152 22.042-20.227 48.098-36.14 76.82-46.404zm-29.157 212.894c0 8.022-6.335 14.575-14.263 14.963-.248.003-.494-.007-.744.009-.058.004-.114.015-.172.02-8.188-.098-14.821-6.782-14.821-14.992s6.633-14.894 14.821-14.991c.058.004.114.016.172.02.252.016.498.006.748.009 7.926.39 14.259 6.941 14.259 14.962zm-69.041-144.013c16.449 9.438 34.71 17.186 54.695 23.219-6.703 24.173-11.384 50.426-13.783 77.753-13.642 4.17-24.544 14.659-29.29 28.041h-63.071c3.216-48.838 22.003-93.49 51.449-129.013zm-51.449 159.013h63.07c4.746 13.382 15.649 23.871 29.29 28.041 2.399 27.327 7.08 53.58 13.783 77.753-19.985 6.033-38.246 13.782-54.695 23.219-29.445-35.523-48.232-80.175-51.448-129.013zm72.827 151.489c12.938-6.812 27.13-12.536 42.534-17.151 5.076 13.623 10.864 26.317 17.306 37.853 5.304 9.499 10.985 18.076 16.98 25.703-28.722-10.263-54.777-26.177-76.82-46.405zm137.663 56.989c-18.534-6.205-36.457-23.741-51.629-50.913-5.198-9.308-9.928-19.492-14.155-30.4 12.382-2.403 25.401-4.204 39.036-5.4 4.808 11.929 14.579 21.339 26.748 25.655zm0-145.898c-13.346 4.733-23.817 15.589-28.009 29.178-16.543 1.402-32.305 3.643-47.259 6.712-6.2-22.181-10.566-46.413-12.86-71.765 11.879-4.823 21.245-14.573 25.548-26.706h62.58zm0-92.58h-62.58c-4.303-12.133-13.669-21.883-25.548-26.706 2.294-25.353 6.66-49.584 12.86-71.765 14.954 3.069 30.716 5.31 47.259 6.712 4.192 13.59 14.664 24.445 28.009 29.179zm0-147.42c-12.169 4.316-21.94 13.725-26.748 25.655-13.635-1.196-26.654-2.997-39.036-5.4 4.226-10.908 8.957-21.092 14.154-30.4 15.173-27.172 33.096-44.708 51.63-50.913zm29.976 282.397c-.012.203-.001.402-.005.604-.309 8.001-6.896 14.419-14.971 14.419s-14.662-6.418-14.971-14.419c-.004-.202.007-.401-.005-.604-.003-.049-.013-.096-.016-.145.092-8.193 6.778-14.832 14.992-14.832s14.9 6.639 14.991 14.832c-.003.049-.013.095-.015.145zm.024 103.501v-61.058c12.169-4.316 21.94-13.726 26.748-25.655 13.635 1.196 26.654 2.997 39.036 5.4-4.226 10.908-8.957 21.092-14.155 30.4-15.172 27.172-33.095 44.708-51.629 50.913zm60.843-10.584c5.995-7.627 11.676-16.205 16.98-25.703 6.441-11.536 12.23-24.23 17.306-37.853 15.405 4.616 29.597 10.339 42.534 17.151-22.043 20.228-48.098 36.142-76.82 46.405zm98.198-68.881c-16.449-9.438-34.71-17.186-54.695-23.219 6.703-24.173 11.384-50.426 13.783-77.753 13.641-4.17 24.544-14.659 29.29-28.051h63.07c-3.215 48.848-22.002 93.5-51.448 129.023z" fill="url(#SVGID_2_)"/></g></g></g></svg>