<svg id="Capa_1" enable-background="new 0 0 512 512" height="512" viewBox="0 0 512 512" width="512" xmlns="http://www.w3.org/2000/svg" xmlns:xlink="http://www.w3.org/1999/xlink"><linearGradient id="SVGID_1_" gradientUnits="userSpaceOnUse" x1="256" x2="256" y1="481" y2="31"><stop offset="0" stop-color="#fd5900"/><stop offset="1" stop-color="#ffde00"/></linearGradient><linearGradient id="SVGID_2_" gradientUnits="userSpaceOnUse" x1="256" x2="256" y1="390.606" y2="31"><stop offset="0" stop-color="#ffe59a"/><stop offset="1" stop-color="#ffffd5"/></linearGradient><g><g><g><path d="m468 61h-1v-14l-15-16h-30l-15 16-15-16h-30l-15 16-15-16h-30l-15 16v14h-260l-27 60v345c0 8.284 6.716 15 15 15h482c8.284 0 15-6.716 15-15v-345z" fill="url(#SVGID_1_)"/></g></g><g><g><path d="m266.904 311.84c-5.66 5.01-14.163 5.025-19.842.038l-121.668-96.878c-2.715 2.714-4.394 6.464-4.394 10.606v150c0 8.284 6.716 15 15 15h241c8.284 0 15-6.716 15-15v-150c0-4.142-1.679-7.892-4.394-10.606zm230.096-280.84h-45v45c0 8.284-6.716 15-15 15s-15-6.716-15-15v-45h-30v45c0 8.284-6.716 15-15 15s-15-6.716-15-15v-45h-30v45c0 8.284-6.716 15-15 15s-15-6.716-15-15v-45h-287c-8.284 0-15 6.716-15 15v75h512v-75c0-8.284-6.716-15-15-15z" fill="url(#SVGID_2_)"/></g></g></g></svg>