<svg id="Capa_1" enable-background="new 0 0 512 512" height="512" viewBox="0 0 512 512" width="512" xmlns="http://www.w3.org/2000/svg" xmlns:xlink="http://www.w3.org/1999/xlink"><linearGradient id="SVGID_1_" gradientUnits="userSpaceOnUse" x1="253.803" x2="253.803" y1="512" y2="0"><stop offset="0" stop-color="#fd5900"/><stop offset="1" stop-color="#ffde00"/></linearGradient><linearGradient id="SVGID_2_" gradientUnits="userSpaceOnUse" x1="323.5" x2="323.5" y1="452" y2="60"><stop offset="0" stop-color="#ffe59a"/><stop offset="1" stop-color="#ffffd5"/></linearGradient><g><g><g><path d="m466 181h-105v-136c0-24.813-20.187-45-45-45h-240c-24.813 0-45 20.187-45 45v422c0 24.813 20.187 45 45 45h240c24.813 0 45-20.187 45-45v-131.388l115.606-150.219c-2.714-2.714-6.464-4.393-10.606-4.393z" fill="url(#SVGID_1_)"/></g></g><g><g><path d="m211 422h-30c-8.284 0-15 6.716-15 15s6.716 15 15 15h30c8.284 0 15-6.716 15-15s-6.716-15-15-15zm-30-332h30c8.284 0 15-6.716 15-15s-6.716-15-15-15h-30c-8.284 0-15 6.716-15 15s6.716 15 15 15zm295.606 95.394-120.702 96.84c-5.66 5.01-14.163 5.026-19.842.038l-121.669-96.877c-2.714 2.713-4.393 6.463-4.393 10.605v150c0 8.284 6.716 15 15 15h241c8.284 0 15-6.716 15-15v-150c0-4.142-1.679-7.892-4.394-10.606z" fill="url(#SVGID_2_)"/></g></g></g></svg>