<svg id="Capa_1" enable-background="new 0 0 511.951 511.951" height="512" viewBox="0 0 511.951 511.951" width="512" xmlns="http://www.w3.org/2000/svg" xmlns:xlink="http://www.w3.org/1999/xlink"><linearGradient id="SVGID_1_" gradientUnits="userSpaceOnUse" x1="137.771" x2="265.05" y1="374.18" y2="246.901"><stop offset="0" stop-color="#a93aff"/><stop offset="1" stop-color="#ff81ff"/></linearGradient><linearGradient id="SVGID_2_" gradientUnits="userSpaceOnUse" x1="276.344" x2="437.263" y1="235.607" y2="74.688"><stop offset="0" stop-color="#ffbef9"/><stop offset="1" stop-color="#fff1ff"/></linearGradient><g><g><g><path d="m414.542 396.394-53.032-53.034c-17.544-17.544-46.094-17.545-63.64 0l-21.213 21.213c-5.864 5.863-15.35 5.863-21.214 0l-108.066-108.065c-5.862-5.863-5.863-15.35 0-21.213l21.214-21.213c17.545-17.546 17.545-46.094 0-63.639l-53.033-53.033c-17.544-17.546-46.094-17.546-63.639 0l-21.213 21.213c-40.939 40.939-40.939 107.553 0 148.492l214.132 214.132c40.941 40.941 107.554 40.938 148.492 0l21.213-21.213c17.544-17.547 17.544-46.095-.001-63.64z" fill="url(#SVGID_1_)"/></g></g><g><g><path d="m256.951 180c-8.284 0-15 6.716-15 15s6.716 15 15 15c24.813 0 45 20.187 45 45 0 8.284 6.716 15 15 15s15-6.716 15-15c0-41.355-33.645-75-75-75zm0-90c-8.284 0-15 6.716-15 15s6.716 15 15 15c74.439 0 135 60.561 135 135 0 8.284 6.716 15 15 15s15-6.716 15-15c0-90.981-74.019-165-165-165zm180.312-15.312c-48.163-48.164-112.199-74.688-180.312-74.688-8.284 0-15 6.716-15 15s6.716 15 15 15c124.065 0 225 100.935 225 225 0 8.284 6.716 15 15 15s15-6.716 15-15c0-68.113-26.525-132.149-74.688-180.312z" fill="url(#SVGID_2_)"/></g></g></g></svg>