<svg id="Capa_1" enable-background="new 0 0 512 512" height="512" viewBox="0 0 512 512" width="512" xmlns="http://www.w3.org/2000/svg" xmlns:xlink="http://www.w3.org/1999/xlink"><linearGradient id="SVGID_1_" gradientUnits="userSpaceOnUse" x1="256" x2="256" y1="512" y2="60"><stop offset="0" stop-color="#fd3a84"/><stop offset="1" stop-color="#ffa68d"/></linearGradient><linearGradient id="SVGID_2_" gradientUnits="userSpaceOnUse" x1="211" x2="211" y1="512" y2="0"><stop offset="0" stop-color="#ffc2cc"/><stop offset="1" stop-color="#fff2f4"/></linearGradient><g><g><g><path d="m376 60s-240.106.004-240.159.005l-104.841 240.995v106c0 57.897 47.103 105 105 105s105-47.103 105-105v-106h30l35 16h27l28-16h105c8.284 0 15-6.716 15-15v-121c0-57.897-47.103-105-105-105z" fill="url(#SVGID_1_)"/></g></g><g><g><path d="m135.841 60.005c-58.247.093-104.841 48.137-104.841 106.15v134.845h210v-136c0-57.949-47.19-105.081-105.159-104.995zm135.159 436.995c0 8.284 6.716 15 15 15h60c8.284 0 15-6.716 15-15v-196h-90zm105-497h-60c-8.284 0-15 6.716-15 15v107.58c-17.459 6.192-30 22.865-30 42.42 0 24.813 20.187 45 45 45s45-20.187 45-45c0-19.555-12.541-36.228-30-42.42v-92.58h45c8.284 0 15-6.716 15-15s-6.716-15-15-15z" fill="url(#SVGID_2_)"/></g></g></g></svg>