<svg id="Capa_1" enable-background="new 0 0 512 512" height="512" viewBox="0 0 512 512" width="512" xmlns="http://www.w3.org/2000/svg" xmlns:xlink="http://www.w3.org/1999/xlink"><linearGradient id="SVGID_1_" gradientUnits="userSpaceOnUse" x1="314.5" x2="314.5" y1="436" y2="46"><stop offset="0" stop-color="#ffbef9"/><stop offset="1" stop-color="#fff1ff"/></linearGradient><linearGradient id="SVGID_2_" gradientUnits="userSpaceOnUse" x1="211" x2="211" y1="466" y2="165.69"><stop offset="0" stop-color="#a93aff"/><stop offset="1" stop-color="#ff81ff"/></linearGradient><g><g><g><path d="m362 61c0-8.28-6.72-15-15-15s-15 6.72-15 15v.46c0 67.828-113.383 101.424-182 104.23l-33 25.31v99l33 26.31c108.01 4.49 182 56.94 182 104.23v.46c0 8.28 6.72 15 15 15s15-6.72 15-15v-135l16-23v-45l-16-22zm135 165h-30c-8.284 0-15 6.716-15 15s6.716 15 15 15h30c8.284 0 15-6.716 15-15s-6.716-15-15-15zm-54.541-59.246 21.214-21.213c5.858-5.858 5.858-15.355 0-21.213-5.856-5.857-15.354-5.858-21.213 0l-21.214 21.213c-5.857 5.858-5.858 15.355 0 21.213s15.355 5.857 21.213 0zm0 148.492c-5.857-5.857-15.355-5.857-21.213 0-5.858 5.858-5.857 15.355 0 21.213l21.214 21.213c5.857 5.857 15.355 5.857 21.213 0 5.858-5.858 5.858-15.355 0-21.213z" fill="url(#SVGID_1_)"/></g></g><g><g><path d="m75 166c-41.36 0-75 33.65-75 75 0 36.22 25.81 66.52 60 73.49v106.51c0 24.81 20.19 45 45 45s45-20.19 45-45v-255.31c-4.97.21-9.97.31-15 .31zm302 30h-15v90h15c24.813 0 45-20.187 45-45s-20.187-45-45-45z" fill="url(#SVGID_2_)"/></g></g></g></svg>