<svg id="Capa_1" enable-background="new 0 0 512.001 512.001" height="512" viewBox="0 0 512.001 512.001" width="512" xmlns="http://www.w3.org/2000/svg" xmlns:xlink="http://www.w3.org/1999/xlink"><linearGradient id="SVGID_1_" gradientUnits="userSpaceOnUse" x1="256.001" x2="256.001" y1="512.001" y2="0"><stop offset="0" stop-color="#5558ff"/><stop offset="1" stop-color="#00c0ff"/></linearGradient><linearGradient id="SVGID_2_" gradientUnits="userSpaceOnUse" x1="271.002" x2="271.002" y1="436.005" y2="60.001"><stop offset="0" stop-color="#addcff"/><stop offset=".5028" stop-color="#eaf6ff"/><stop offset="1" stop-color="#eaf6ff"/></linearGradient><g><g><g><path d="m301 150c0-82.71-67.29-150-150-150-40.043 0-77.854 15.6-106.468 43.924-28.717 28.426-44.532 66.097-44.532 106.076 0 34.98 12.22 69.156 33.92 95.867l-29.526 29.527c-4.29 4.29-5.573 10.742-3.252 16.347 2.322 5.605 7.791 9.259 13.858 9.259h136c39.979 0 77.651-15.815 106.077-44.531 28.324-28.614 43.923-66.425 43.923-106.469zm181.453 311.24c18.917-23.858 29.547-54.176 29.547-85.24 0-74.439-61.009-135-136-135-74.439 0-135 60.561-135 135 0 74.991 60.561 136 135 136h121c6.067 0 11.537-3.655 13.858-9.26s1.038-12.057-3.252-16.347z" fill="url(#SVGID_1_)"/></g></g><g><g><path d="m151 211c-8.284 0-15 6.716-15 15s6.716 15 15 15 15-6.716 15-15-6.715-15-15-15zm0-151c-24.813 0-45 20.187-45 45 0 8.284 6.716 15 15 15s15-6.716 15-15c0-8.271 6.729-15 15-15s15 6.729 15 15c0 4.821-2.232 9.229-6.125 12.095-14.949 11.008-23.875 28.652-23.875 47.197v.708c0 8.284 6.716 15 15 15s15-6.716 15-15v-.708c0-9.049 4.36-17.662 11.662-23.039 11.483-8.453 18.338-22.006 18.338-36.253 0-24.812-20.187-45-45-45zm283.787 355.092c-4.461-10.409-40.716-95.005-45-105-2.363-5.515-7.786-9.092-13.787-9.092s-11.423 3.576-13.787 9.091c-4.298 10.028-40.536 94.583-45 105-3.263 7.614.264 16.433 7.878 19.696 7.617 3.265 16.433-.264 19.696-7.878l8.961-20.909h44.504l8.961 20.909c3.263 7.615 12.081 11.142 19.696 7.878 7.615-3.263 11.142-12.081 7.878-19.695zm-68.181-39.092 9.394-21.92 9.395 21.92z" fill="url(#SVGID_2_)"/></g></g></g></svg>