<svg id="Capa_1" enable-background="new 0 0 512.024 512.024" height="512" viewBox="0 0 512.024 512.024" width="512" xmlns="http://www.w3.org/2000/svg" xmlns:xlink="http://www.w3.org/1999/xlink"><linearGradient id="SVGID_1_" gradientUnits="userSpaceOnUse" x1="246.417" x2="486.419" y1="265.643" y2="25.641"><stop offset="0" stop-color="#c3ffe8"/><stop offset=".9973" stop-color="#f0fff4"/></linearGradient><linearGradient id="SVGID_2_" gradientUnits="userSpaceOnUse" x1="137.843" x2="265.123" y1="374.217" y2="246.937"><stop offset="0" stop-color="#00b59c"/><stop offset="1" stop-color="#9cffac"/></linearGradient><g><g><g><g><path d="m507.63 46.852-42.422-42.422c-5.857-5.858-15.355-5.858-21.213 0l-148.182 148.182-28.183-28.182c-4.289-4.291-10.743-5.572-16.347-3.252-5.605 2.322-9.26 7.792-9.26 13.858v120c0 8.284 6.716 15 15 15h120c6.067 0 11.536-3.655 13.858-9.26 2.321-5.605 1.038-12.057-3.252-16.347l-28.183-28.183 148.184-148.181c5.858-5.858 5.858-15.355 0-21.213z" fill="url(#SVGID_1_)"/></g></g></g><g><g><g><path d="m414.614 396.43-53.032-53.034c-17.544-17.544-46.094-17.545-63.64 0l-21.212 21.214c-5.863 5.862-15.351 5.862-21.214 0l-108.066-108.065c-5.849-5.849-5.849-15.366-.001-21.213l21.214-21.214c8.5-8.5 13.181-19.8 13.181-31.82s-4.682-23.32-13.181-31.819l-53.033-53.034c-17.545-17.547-46.095-17.545-63.64 0l-21.213 21.213c-41.039 41.038-41.035 107.458 0 148.492l214.132 214.132c40.941 40.94 107.554 40.938 148.492 0l21.213-21.213c17.546-17.545 17.546-46.093 0-63.639z" fill="url(#SVGID_2_)"/></g></g></g></g></svg>