<svg id="Capa_1" enable-background="new 0 0 512 512" height="512" viewBox="0 0 512 512" width="512" xmlns="http://www.w3.org/2000/svg" xmlns:xlink="http://www.w3.org/1999/xlink"><linearGradient id="SVGID_1_" gradientUnits="userSpaceOnUse" x1="256" x2="256" y1="421" y2="95.394"><stop offset="0" stop-color="#ffe59a"/><stop offset="1" stop-color="#ffffd5"/></linearGradient><linearGradient id="SVGID_2_" gradientUnits="userSpaceOnUse" x1="256" x2="256" y1="299" y2="91"><stop offset="0" stop-color="#fd5900"/><stop offset="1" stop-color="#ffde00"/></linearGradient><g><g><g><path d="m507.607 95.394h-503.214c-2.714 2.714-4.393 6.464-4.393 10.606v300c0 8.284 6.716 15 15 15h482c8.284 0 15-6.716 15-15v-300c0-4.142-1.679-7.892-4.393-10.606z" fill="url(#SVGID_1_)"/></g></g><g><g><path d="m497 91h-482c-4.142 0-7.892 1.679-10.607 4.394l241.354 199.556c5.768 5.401 14.737 5.401 20.505 0l241.355-199.556c-2.715-2.715-6.465-4.394-10.607-4.394z" fill="url(#SVGID_2_)"/></g></g></g></svg>