<svg id="Capa_1" enable-background="new 0 0 512 512" height="512" viewBox="0 0 512 512" width="512" xmlns="http://www.w3.org/2000/svg" xmlns:xlink="http://www.w3.org/1999/xlink"><linearGradient id="SVGID_1_" gradientUnits="userSpaceOnUse" x1="256" x2="256" y1="391" y2="0"><stop offset="0" stop-color="#a93aff"/><stop offset="1" stop-color="#ff81ff"/></linearGradient><linearGradient id="SVGID_2_" gradientUnits="userSpaceOnUse" x1="256" x2="256" y1="512" y2="60"><stop offset="0" stop-color="#ffbef9"/><stop offset="1" stop-color="#fff1ff"/></linearGradient><g><g><g><path d="m256 0c-107.523 0-195 87.477-195 195 0 108.075 87.477 196 195 196s195-87.925 195-196c0-107.523-87.477-195-195-195z" fill="url(#SVGID_1_)"/></g></g><g><g><path d="m256 270c41.355 0 75-33.645 75-75s-33.645-75-75-75-75 33.645-75 75 33.645 75 75 75zm0-90c8.284 0 15 6.716 15 15s-6.716 15-15 15-15-6.716-15-15 6.716-15 15-15zm0-90c8.284 0 15-6.716 15-15s-6.716-15-15-15-15 6.716-15 15 6.716 15 15 15zm118.806 404.907c-8.39-59.525-59.234-103.907-118.806-103.907-59.663 0-110.431 44.49-118.806 103.907-1.269 9.015 5.732 17.093 14.854 17.093h30.419c7.159 0 13.32-5.06 14.714-12.082 5.621-28.345 30.358-48.918 58.819-48.918s53.198 20.573 58.819 48.918c1.394 7.022 7.555 12.082 14.714 12.082h30.419c9.104 0 16.125-8.062 14.854-17.093z" fill="url(#SVGID_2_)"/></g></g></g></svg>