<svg id="Capa_1" enable-background="new 0 0 512 512" height="512" viewBox="0 0 512 512" width="512" xmlns="http://www.w3.org/2000/svg" xmlns:xlink="http://www.w3.org/1999/xlink"><linearGradient id="SVGID_1_" gradientUnits="userSpaceOnUse" x1="256" x2="256" y1="482" y2="0"><stop offset="0" stop-color="#ffc2cc"/><stop offset="1" stop-color="#fff2f4"/></linearGradient><linearGradient id="SVGID_2_" gradientUnits="userSpaceOnUse" x1="256" x2="256" y1="512" y2="242"><stop offset="0" stop-color="#fd3a84"/><stop offset="1" stop-color="#ffa68d"/></linearGradient><g><g><g><path d="m406 392c-8.284 0-15 6.716-15 15 0 24.813-20.187 45-45 45h-60c-8.284 0-15 6.716-15 15s6.716 15 15 15h60c41.355 0 75-33.645 75-75 0-8.284-6.716-15-15-15zm-150-392c-124.065 0-225 101.383-225 226v121c0 8.284 6.716 15 15 15s15-6.716 15-15v-121c0-108.075 87.477-196 195-196s195 87.925 195 196v121c0 8.284 6.716 15 15 15s15-6.716 15-15v-121c0-124.617-100.935-226-225-226zm53.158 342.91c7.632 3.284 16.444-.265 19.708-7.851 3.274-7.609-.241-16.433-7.851-19.707-20.591-8.86-42.466-13.352-65.015-13.352s-44.424 4.492-65.015 13.352c-7.61 3.274-11.125 12.098-7.851 19.707 3.274 7.61 12.097 11.124 19.708 7.851 16.825-7.24 34.709-10.91 53.158-10.91s36.333 3.67 53.158 10.91zm-3.926 47.294c3.273-7.61-.242-16.433-7.852-19.707-13.108-5.638-27.03-8.497-41.38-8.497s-28.272 2.859-41.38 8.498c-7.61 3.274-11.125 12.097-7.852 19.707 3.274 7.61 12.096 11.125 19.707 7.852 9.341-4.019 19.275-6.057 29.525-6.057s20.184 2.038 29.525 6.056c7.634 3.284 16.444-.266 19.707-7.852z" fill="url(#SVGID_1_)"/></g></g><g><g><path d="m256 422c-24.813 0-45 20.187-45 45s20.187 45 45 45 45-20.187 45-45-20.187-45-45-45zm-150-180c-41.355 0-75 33.645-75 75v30c0 41.355 33.645 75 75 75 8.284 0 15-6.716 15-15v-150c0-8.284-6.716-15-15-15zm300 0c-8.284 0-15 6.716-15 15v150c0 8.284 6.716 15 15 15 41.355 0 75-33.645 75-75v-30c0-41.355-33.645-75-75-75z" fill="url(#SVGID_2_)"/></g></g></g></svg>