<svg id="Capa_1" enable-background="new 0 0 512 512" height="512" viewBox="0 0 512 512" width="512" xmlns="http://www.w3.org/2000/svg" xmlns:xlink="http://www.w3.org/1999/xlink"><linearGradient id="SVGID_1_" gradientUnits="userSpaceOnUse" x1="256" x2="256" y1="512" y2="0"><stop offset="0" stop-color="#fd3a84"/><stop offset="1" stop-color="#ffa68d"/></linearGradient><linearGradient id="SVGID_2_" gradientUnits="userSpaceOnUse" x1="256" x2="256" y1="452" y2="90"><stop offset="0" stop-color="#ffc2cc"/><stop offset="1" stop-color="#fff2f4"/></linearGradient><g><g><g><path d="m331 187.94-20.333-14.94h-99.333l-30.334 14.94c-34.93 19.26-64.308 47.182-85.339 81.211-22.676 36.69-34.661 78.882-34.661 122.013v105.836c0 8.284 6.716 15 15 15h360c8.284 0 15-6.716 15-15v-105.836c0-43.131-11.985-85.323-34.661-122.013-21.031-34.029-50.409-61.95-85.339-81.211zm75-187.94h-300c-58.448 0-106 47.103-106 105v31c0 24.813 20.187 45 45 45h61c24.813 0 45-20.187 45-45v-31c0-8.271 6.729-15 15-15h15l26 20h99l25-20h15c8.271 0 15 6.729 15 15v31c0 24.813 20.187 45 45 45h61c24.813 0 45-20.187 45-45v-31c0-57.897-47.552-105-106-105z" fill="url(#SVGID_1_)"/></g></g><g><g><path d="m256 332c-8.271 0-15 6.729-15 15s6.729 15 15 15 15-6.729 15-15-6.729-15-15-15zm0-90c-57.897 0-105 47.103-105 105s47.103 105 105 105 105-47.103 105-105-47.103-105-105-105zm0 150c-24.813 0-45-20.187-45-45s20.187-45 45-45 45 20.187 45 45-20.187 45-45 45zm75-302h-150v97.94h150z" fill="url(#SVGID_2_)"/></g></g></g></svg>