<svg id="Capa_1" enable-background="new 0 0 512.003 512.003" height="512" viewBox="0 0 512.003 512.003" width="512" xmlns="http://www.w3.org/2000/svg" xmlns:xlink="http://www.w3.org/1999/xlink"><linearGradient id="SVGID_1_" gradientUnits="userSpaceOnUse" x1="256.002" x2="256.002" y1="512.003" y2="120"><stop offset="0" stop-color="#5558ff"/><stop offset="1" stop-color="#00c0ff"/></linearGradient><linearGradient id="SVGID_2_" gradientUnits="userSpaceOnUse" x1="256.002" x2="256.002" y1="512" y2="0"><stop offset="0" stop-color="#addcff"/><stop offset=".5028" stop-color="#eaf6ff"/><stop offset="1" stop-color="#eaf6ff"/></linearGradient><g><g><g><path d="m330.714 494.077-57.149-287.648c16.111-6.856 27.436-22.844 27.436-41.429 0-24.813-20.187-45-45-45s-45 20.187-45 45c0 18.584 11.325 34.573 27.436 41.429l-57.149 287.648c-1.614 8.125 3.664 16.021 11.79 17.635 8.125 1.614 16.021-3.665 17.636-11.79l45.287-227.947 45.287 227.947c1.419 7.139 7.686 12.081 14.697 12.08.969 0 1.952-.095 2.938-.291 8.127-1.613 13.406-9.508 11.791-17.634z" fill="url(#SVGID_1_)"/></g></g><g><g><path d="m167.444 304.171c6.982 4.456 16.257 2.412 20.715-4.572 4.457-6.983 2.41-16.257-4.572-20.715-39.188-25.017-62.585-67.591-62.585-113.884 0-74.439 60.561-135 135-135s135 60.561 135 135c0 46.293-23.396 88.867-62.585 113.884-6.982 4.458-9.029 13.732-4.572 20.715 4.449 6.969 13.719 9.039 20.715 4.572 47.866-30.557 76.442-82.583 76.442-139.171 0-90.981-74.019-165-165-165s-165 74.019-165 165c-.001 56.587 28.576 108.614 76.442 139.171zm238.557 177.829h-300c-8.284 0-15 6.716-15 15s6.716 15 15 15h300c8.284 0 15-6.716 15-15s-6.715-15-15-15zm-92.834-245.947c6.196 5.53 15.678 4.959 21.179-1.205 17.189-19.262 26.655-44.067 26.655-69.849 0-57.897-47.103-105-105-105s-105 47.103-105 105c0 25.781 9.466 50.587 26.655 69.849 5.516 6.182 14.998 6.719 21.179 1.205 6.181-5.516 6.72-14.998 1.204-21.179-12.276-13.758-19.038-31.47-19.038-49.874 0-41.355 33.645-75 75-75s75 33.645 75 75c0 18.404-6.762 36.116-19.038 49.874-5.515 6.181-4.976 15.663 1.204 21.179z" fill="url(#SVGID_2_)"/></g></g></g></svg>