<svg id="Capa_1" enable-background="new 0 0 512.002 512.002" height="512" viewBox="0 0 512.002 512.002" width="512" xmlns="http://www.w3.org/2000/svg" xmlns:xlink="http://www.w3.org/1999/xlink"><linearGradient id="SVGID_1_" gradientUnits="userSpaceOnUse" x1="256.001" x2="256.001" y1="466.001" y2="91.001"><stop offset="0" stop-color="#ffe59a"/><stop offset="1" stop-color="#ffffd5"/></linearGradient><linearGradient id="SVGID_2_" gradientUnits="userSpaceOnUse" x1="256.001" x2="256.001" y1="481.001" y2="31.001"><stop offset="0" stop-color="#fd5900"/><stop offset="1" stop-color="#ffde00"/></linearGradient><g><g><g><path d="m256.001 181.001c8.284 0 15-6.716 15-15v-60c0-8.284-6.716-15-15-15s-15 6.716-15 15v60c0 8.284 6.716 15 15 15zm-143.477-21.764c7.167-4.155 9.609-13.333 5.454-20.5s-13.333-9.607-20.5-5.454c-36.971 21.433-68.756 49.659-94.471 83.895-4.975 6.624-3.639 16.027 2.985 21.002 2.701 2.028 5.862 3.007 8.997 3.007 4.557 0 9.058-2.069 12.005-5.992 23.284-30.999 52.061-56.556 85.53-75.958zm-67.523 306.764h422v-60h-422zm463.993-248.824c-25.715-34.235-57.5-62.461-94.471-83.895-7.167-4.156-16.345-1.713-20.5 5.454s-1.713 16.345 5.454 20.5c33.469 19.403 62.246 44.959 85.529 75.958 2.947 3.924 7.448 5.992 12.005 5.992 3.135 0 6.297-.979 8.997-3.007 6.625-4.975 7.962-14.378 2.986-21.002z" fill="url(#SVGID_1_)"/></g></g><g><g><path d="m196.001 121.001h120c8.284 0 15-6.716 15-15 0-41.355-33.645-75-75-75s-75 33.645-75 75c0 8.284 6.716 15 15 15zm-181 300h482c8.284 0 15-6.716 15-15 0-140.607-114.841-255-256-255s-256 114.393-256 255c0 8.284 6.716 15 15 15zm482 30h-482c-8.284 0-15 6.716-15 15s6.716 15 15 15h482c8.284 0 15-6.716 15-15s-6.716-15-15-15z" fill="url(#SVGID_2_)"/></g></g></g></svg>