<svg id="Capa_1" enable-background="new 0 0 512 512" height="512" viewBox="0 0 512 512" width="512" xmlns="http://www.w3.org/2000/svg" xmlns:xlink="http://www.w3.org/1999/xlink"><linearGradient id="SVGID_1_" gradientUnits="userSpaceOnUse" x1="256" x2="256" y1="419" y2="74"><stop offset="0" stop-color="#fd5900"/><stop offset="1" stop-color="#ffde00"/></linearGradient><linearGradient id="SVGID_2_" gradientUnits="userSpaceOnUse" x1="256" x2="256" y1="438" y2="138.394"><stop offset="0" stop-color="#ffe59a"/><stop offset="1" stop-color="#ffffd5"/></linearGradient><g><g><g><path d="m467 74h-422c-8.284 0-15 6.716-15 15v330h452v-330c0-8.284-6.716-15-15-15z" fill="url(#SVGID_1_)"/></g></g><g><g><path d="m497 378h-482c-8.284 0-15 6.716-15 15 0 24.853 20.147 45 45 45h422c24.853 0 45-20.147 45-45 0-8.284-6.716-15-15-15zm-361-64h240c8.284 0 15-6.716 15-15v-150c0-4.142-1.679-7.892-4.394-10.606l-119.702 96.84c-5.66 5.01-14.163 5.025-19.842.038l-121.669-96.877c-2.714 2.713-4.393 6.463-4.393 10.605v150c0 8.284 6.716 15 15 15z" fill="url(#SVGID_2_)"/></g></g></g></svg>